<svg width="62" height="83" viewBox="0 0 62 83" fill="none" xmlns="http://www.w3.org/2000/svg">
<path d="M61.5779 0.391968L31.0452 30.9246L0.562057 0.391965C0.600567 6.72405 0.619819 13.0506 0.619819 19.3717L31.0452 49.8219L61.3881 19.4873C61.3881 14.3765 61.4183 9.2657 61.4789 4.15491C61.4789 4.518 61.5201 2.63653 61.5779 0.391968Z" fill="url(#paint0_linear_11_357)"/>
<path d="M61.3716 33.681L31.0452 64.0073L0.603325 33.5489C0.603325 37.642 0.573066 41.735 0.512554 45.828C0.512554 44.9203 0.586822 49.0133 0.512553 52.4297L31.0452 82.9624L61.4541 52.5122C61.3963 46.2324 61.3798 40.0021 61.3716 33.681Z" fill="url(#paint1_linear_11_357)"/>
<defs>
<linearGradient id="paint0_linear_11_357" x1="28.3379" y1="65.0473" x2="27.6841" y2="-14.3492" gradientUnits="userSpaceOnUse">
<stop stop-color="white"/>
<stop offset="1" stop-opacity="0"/>
</linearGradient>
<linearGradient id="paint1_linear_11_357" x1="28.2546" y1="98.1827" x2="27.6004" y2="18.8127" gradientUnits="userSpaceOnUse">
<stop stop-color="white"/>
<stop offset="1" stop-opacity="0"/>
</linearGradient>
</defs>
</svg>
