<svg width="177" height="79" viewBox="0 0 177 79" fill="none" xmlns="http://www.w3.org/2000/svg">
<g filter="url(#filter0_d_1_61)">
<path d="M25.132 25.7115H44.5251L42.9713 33.1504H23.6358L25.132 25.7115ZM21.449 47.7419L11 57L20.1255 7.68666H50.5675L49.0137 15.1255H27.9518L21.449 47.7419Z" fill="#FFD542"/>
<path d="M41.8982 47.7419L67.9091 7.68666H77.1741L87.0721 47.7419H77.7496L69.9233 12.2644H73.6062L51.8537 47.7419H41.8982ZM52.6594 39.1586L56.4574 32.1204H77.2316L78.325 39.1586H52.6594Z" fill="#FFD542"/>
<path d="M105.293 48.4286C103.106 48.4286 100.977 48.2188 98.905 47.7991C96.8717 47.4177 95.011 46.8836 93.323 46.1969C91.6734 45.5103 90.2731 44.7664 89.1221 43.9653L92.9202 36.8125C94.1862 37.6899 95.529 38.4529 96.9484 39.1014C98.4063 39.7118 99.9217 40.1886 101.495 40.532C103.068 40.8371 104.64 40.9897 106.213 40.9897C107.94 40.9897 109.417 40.799 110.644 40.4175C111.91 40.036 112.87 39.502 113.522 38.8153C114.212 38.1287 114.558 37.2894 114.558 36.2976C114.558 35.382 114.193 34.6381 113.464 34.0659C112.735 33.4937 111.776 33.0168 110.587 32.6354C109.436 32.2157 108.151 31.8152 106.731 31.4337C105.312 31.0522 103.873 30.6135 102.415 30.1176C100.996 29.5835 99.6915 28.935 98.5022 28.1721C97.3513 27.371 96.4113 26.36 95.6824 25.1393C94.9535 23.9186 94.589 22.3927 94.589 20.5616C94.589 17.8149 95.3372 15.4307 96.8334 13.4088C98.3679 11.387 100.516 9.82294 103.279 8.71665C106.041 7.57222 109.283 7 113.004 7C115.728 7 118.298 7.30518 120.715 7.91555C123.132 8.48776 125.204 9.32702 126.93 10.4333L123.42 17.5288C121.885 16.4988 120.178 15.7359 118.298 15.2399C116.418 14.7059 114.481 14.4388 112.486 14.4388C110.683 14.4388 109.129 14.6486 107.825 15.0683C106.559 15.4879 105.58 16.0792 104.89 16.8421C104.238 17.567 103.912 18.4062 103.912 19.3599C103.912 20.3136 104.257 21.0956 104.947 21.706C105.676 22.2782 106.635 22.7741 107.825 23.1938C109.014 23.5752 110.318 23.9567 111.738 24.3382C113.157 24.7197 114.577 25.1584 115.996 25.6543C117.416 26.1502 118.72 26.7797 119.909 27.5426C121.099 28.3056 122.058 29.2783 122.787 30.4609C123.516 31.6054 123.88 33.055 123.88 34.8098C123.88 37.5564 123.113 39.9597 121.578 42.0197C120.044 44.0416 117.876 45.6247 115.076 46.7691C112.313 47.8754 109.052 48.4286 105.293 48.4286Z" fill="#FFD542"/>
<path d="M135.731 47.7419L142.233 15.2399H129.343L130.897 7.68666H166L164.446 15.2399H151.613L145.053 47.7419H135.731Z" fill="#FFD542"/>
</g>
<path d="M22.8953 79C21.5565 79 20.2541 78.8676 18.9883 78.6028C17.7468 78.338 16.6027 77.9889 15.556 77.5556C14.5336 77.0981 13.6816 76.5926 13 76.0389L15.0083 72.3556C15.7142 72.9333 16.5175 73.4269 17.4182 73.8361C18.3189 74.2454 19.2683 74.5583 20.2663 74.775C21.2887 74.9917 22.3111 75.1 23.3335 75.1C24.575 75.1 25.6582 74.9556 26.5833 74.6667C27.5083 74.3778 28.2142 73.9685 28.7011 73.4389C29.2123 72.9093 29.4679 72.2713 29.4679 71.525C29.4679 70.8509 29.2366 70.3093 28.7741 69.9C28.3116 69.4667 27.6909 69.1176 26.9119 68.8528C26.1573 68.5639 25.3174 68.2991 24.3924 68.0583C23.4917 67.7935 22.5789 67.5046 21.6539 67.1917C20.7288 66.8546 19.889 66.4454 19.1344 65.9639C18.3798 65.4583 17.759 64.8204 17.2722 64.05C16.8096 63.2796 16.5784 62.3167 16.5784 61.1611C16.5784 59.5 17.0409 58.0676 17.9659 56.8639C18.9153 55.6361 20.2176 54.6852 21.8729 54.0111C23.5526 53.337 25.5 53 27.7152 53C29.3705 53 30.9406 53.1806 32.4255 53.5417C33.9104 53.9028 35.1884 54.4324 36.2595 55.1306L34.3973 58.85C33.4479 58.2241 32.3769 57.7426 31.1841 57.4056C29.9913 57.0685 28.7498 56.9 27.4596 56.9C26.1938 56.9 25.0984 57.0565 24.1733 57.3694C23.2483 57.6824 22.5424 58.1157 22.0555 58.6694C21.5687 59.2231 21.3131 59.8731 21.2887 60.6194C21.2887 61.3176 21.52 61.8833 21.9825 62.3167C22.445 62.7259 23.0536 63.075 23.8082 63.3639C24.5628 63.6528 25.4026 63.9296 26.3277 64.1944C27.2527 64.4352 28.1656 64.712 29.0662 65.025C29.9913 65.338 30.8433 65.7352 31.6222 66.2167C32.4012 66.6981 33.0219 67.312 33.4844 68.0583C33.947 68.7806 34.1782 69.6954 34.1782 70.8028C34.1782 72.4639 33.7035 73.9083 32.7542 75.1361C31.8291 76.3639 30.5146 77.3148 28.8106 77.9889C27.131 78.663 25.1592 79 22.8953 79Z" fill="white"/>
<path d="M42.326 78.6389L46.6347 57.3333H38.1634L38.9667 53.3611H60.6196L59.8163 57.3333H51.345L47.0729 78.6389H42.326Z" fill="white"/>
<path d="M66.4459 63.8694H79.1893L78.4225 67.7333H65.6791L66.4459 63.8694ZM64.6202 74.7028H79.0798L78.2765 78.6389H59.1066L64.2185 53.3611H82.8773L82.074 57.2972H68.1256L64.6202 74.7028Z" fill="white"/>
<path d="M79.9533 78.6389L96.5672 53.3611H101.278L107.631 78.6389H102.921L97.5896 55.7806H99.4884L85.0288 78.6389H79.9533ZM86.4528 72.7889L88.4611 69.1056H102.227L102.848 72.7889H86.4528Z" fill="white"/>
<path d="M110.918 78.6389L116.03 53.3611H119.901L127.35 71.8861L125.341 71.85L139.91 53.3611H144L138.888 78.6389H134.397L138.085 60.2222L139.144 60.2583L126.802 75.75H124.684L118.221 60.2222L119.134 60.3306L115.446 78.6389H110.918Z" fill="white"/>
<defs>
<filter id="filter0_d_1_61" x="0" y="0" width="177" height="72" filterUnits="userSpaceOnUse" color-interpolation-filters="sRGB">
<feFlood flood-opacity="0" result="BackgroundImageFix"/>
<feColorMatrix in="SourceAlpha" type="matrix" values="0 0 0 0 0 0 0 0 0 0 0 0 0 0 0 0 0 0 127 0" result="hardAlpha"/>
<feOffset dy="4"/>
<feGaussianBlur stdDeviation="5.5"/>
<feComposite in2="hardAlpha" operator="out"/>
<feColorMatrix type="matrix" values="0 0 0 0 1 0 0 0 0 0.836833 0 0 0 0 0.258333 0 0 0 0.15 0"/>
<feBlend mode="normal" in2="BackgroundImageFix" result="effect1_dropShadow_1_61"/>
<feBlend mode="normal" in="SourceGraphic" in2="effect1_dropShadow_1_61" result="shape"/>
</filter>
</defs>
</svg>
